<svg width="36" height="32" viewBox="0 0 36 32" fill="none" xmlns="http://www.w3.org/2000/svg">
<path d="M30.4 0H14.4C13.127 0 11.9061 0.505713 11.0059 1.40589C10.1057 2.30606 9.6 3.52696 9.6 4.8V16C9.6 17.273 10.1057 18.4939 11.0059 19.3941C11.9061 20.2943 13.127 20.8 14.4 20.8H30.4C31.673 20.8 32.8939 20.2943 33.7941 19.3941C34.6943 18.4939 35.2 17.273 35.2 16V4.8C35.2 3.52696 34.6943 2.30606 33.7941 1.40589C32.8939 0.505713 31.673 0 30.4 0ZM32 16C32 16.4243 31.8314 16.8313 31.5314 17.1314C31.2313 17.4314 30.8243 17.6 30.4 17.6H14.4C13.9757 17.6 13.5687 17.4314 13.2686 17.1314C12.9686 16.8313 12.8 16.4243 12.8 16V4.8C12.8 4.37565 12.9686 3.96869 13.2686 3.66863C13.5687 3.36857 13.9757 3.2 14.4 3.2H30.4C30.8243 3.2 31.2313 3.36857 31.5314 3.66863C31.8314 3.96869 32 4.37565 32 4.8V16ZM26.4 9.6C25.8077 9.60201 25.2373 9.82445 24.8 10.224C24.4559 9.91128 24.0285 9.70523 23.5695 9.63088C23.1106 9.55654 22.6399 9.6171 22.2147 9.80521C21.7895 9.99332 21.4281 10.3009 21.1745 10.6905C20.9208 11.0801 20.7857 11.5351 20.7857 12C20.7857 12.4649 20.9208 12.9199 21.1745 13.3095C21.4281 13.6991 21.7895 14.0067 22.2147 14.1948C22.6399 14.3829 23.1106 14.4435 23.5695 14.3691C24.0285 14.2948 24.4559 14.0887 24.8 13.776C25.0889 14.0386 25.4376 14.2268 25.8157 14.3241C26.1938 14.4215 26.5899 14.4252 26.9698 14.3348C27.3496 14.2444 27.7017 14.0627 27.9954 13.8055C28.2891 13.5482 28.5157 13.2232 28.6553 12.8586C28.795 12.494 28.8437 12.1009 28.797 11.7132C28.7504 11.3256 28.6099 10.9552 28.3876 10.6341C28.1654 10.3131 27.8683 10.0511 27.5219 9.87087C27.1755 9.69067 26.7904 9.59769 26.4 9.6ZM24 24C23.5757 24 23.1687 24.1686 22.8686 24.4686C22.5686 24.7687 22.4 25.1757 22.4 25.6V27.2C22.4 27.6243 22.2314 28.0313 21.9314 28.3314C21.6313 28.6314 21.2243 28.8 20.8 28.8H4.8C4.37565 28.8 3.96869 28.6314 3.66863 28.3314C3.36857 28.0313 3.2 27.6243 3.2 27.2V20.8H4.8C5.22435 20.8 5.63131 20.6314 5.93137 20.3314C6.23143 20.0313 6.4 19.6243 6.4 19.2C6.4 18.7757 6.23143 18.3687 5.93137 18.0686C5.63131 17.7686 5.22435 17.6 4.8 17.6H3.2V16C3.2 15.5757 3.36857 15.1687 3.66863 14.8686C3.96869 14.5686 4.37565 14.4 4.8 14.4C5.22435 14.4 5.63131 14.2314 5.93137 13.9314C6.23143 13.6313 6.4 13.2243 6.4 12.8C6.4 12.3757 6.23143 11.9687 5.93137 11.6686C5.63131 11.3686 5.22435 11.2 4.8 11.2C3.52696 11.2 2.30606 11.7057 1.40589 12.6059C0.505713 13.5061 0 14.727 0 16V27.2C0 28.473 0.505713 29.6939 1.40589 30.5941C2.30606 31.4943 3.52696 32 4.8 32H20.8C22.073 32 23.2939 31.4943 24.1941 30.5941C25.0943 29.6939 25.6 28.473 25.6 27.2V25.6C25.6 25.1757 25.4314 24.7687 25.1314 24.4686C24.8313 24.1686 24.4243 24 24 24ZM8 25.6H9.6C10.0243 25.6 10.4313 25.4314 10.7314 25.1314C11.0314 24.8313 11.2 24.4243 11.2 24C11.2 23.5757 11.0314 23.1687 10.7314 22.8686C10.4313 22.5686 10.0243 22.4 9.6 22.4H8C7.57565 22.4 7.16869 22.5686 6.86863 22.8686C6.56857 23.1687 6.4 23.5757 6.4 24C6.4 24.4243 6.56857 24.8313 6.86863 25.1314C7.16869 25.4314 7.57565 25.6 8 25.6Z" fill="white"/>
</svg>
