<svg width="29" height="23" viewBox="0 0 29 23" fill="none" xmlns="http://www.w3.org/2000/svg">
<path d="M12.6792 13.6708L10.7313 11.7229C10.4479 11.4396 10.1056 11.2979 9.70417 11.2979C9.30278 11.2979 8.96042 11.4396 8.67709 11.7229C8.39375 12.0063 8.25209 12.3486 8.25209 12.75C8.25209 13.1514 8.39375 13.4938 8.67709 13.7771L11.6875 16.7875C11.9708 17.0708 12.3014 17.2125 12.6792 17.2125C13.0569 17.2125 13.3875 17.0708 13.6708 16.7875L19.6563 10.8021C19.9396 10.5188 20.0813 10.1764 20.0813 9.775C20.0813 9.37361 19.9396 9.03125 19.6563 8.74792C19.3729 8.46459 19.0306 8.32292 18.6292 8.32292C18.2278 8.32292 17.8854 8.46459 17.6021 8.74792L12.6792 13.6708ZM2.83334 5.66667H25.5V2.83334H2.83334V5.66667ZM2.83334 22.6667C2.05417 22.6667 1.38692 22.389 0.831586 21.8337C0.276252 21.2783 -0.000942039 20.6116 2.40521e-06 19.8333V2.83334C2.40521e-06 2.05417 0.277669 1.38692 0.833002 0.831586C1.38834 0.276252 2.05511 -0.000942039 2.83334 2.40521e-06H25.5C26.2792 2.40521e-06 26.9464 0.277669 27.5018 0.833002C28.0571 1.38834 28.3343 2.05511 28.3333 2.83334V19.8333C28.3333 20.6125 28.0557 21.2798 27.5003 21.8351C26.945 22.3904 26.2782 22.6676 25.5 22.6667H2.83334Z" fill="white"/>
</svg>
