<svg width="34" height="34" viewBox="0 0 34 34" fill="none" xmlns="http://www.w3.org/2000/svg">
<path d="M20.1875 25.5H24.4375V29.75H20.1875V25.5ZM27.625 25.5H31.875V29.75H27.625V25.5ZM20.1875 18.0625H24.4375V22.3125H20.1875V18.0625ZM27.625 18.0625H31.875V22.3125H27.625V18.0625Z" fill="white"/>
<path d="M18.0625 25.5H4.25V10.625H29.75V15.9375H31.875V10.625C31.8744 10.0616 31.6504 9.52141 31.252 9.12302C30.8536 8.72463 30.3134 8.50056 29.75 8.5H23.375V4.25C23.3744 3.68659 23.1504 3.14641 22.752 2.74802C22.3536 2.34963 21.8134 2.12556 21.25 2.125H12.75C12.1866 2.12556 11.6464 2.34963 11.248 2.74802C10.8496 3.14641 10.6256 3.68659 10.625 4.25V8.5H4.25C3.68659 8.50056 3.14641 8.72463 2.74802 9.12302C2.34963 9.52141 2.12556 10.0616 2.125 10.625V25.5C2.12556 26.0634 2.34963 26.6036 2.74802 27.002C3.14641 27.4004 3.68659 27.6244 4.25 27.625H18.0625V25.5ZM12.75 4.25H21.25V8.5H12.75V4.25Z" fill="white"/>
</svg>
