<svg width="34" height="34" viewBox="0 0 34 34" fill="none" xmlns="http://www.w3.org/2000/svg">
<path d="M22.6666 24.0833V26.9167H2.83331V24.0833C2.83331 24.0833 2.83331 18.4167 12.75 18.4167C22.6666 18.4167 22.6666 24.0833 22.6666 24.0833ZM17.7083 10.625C17.7083 9.64433 17.4175 8.68569 16.8727 7.8703C16.3279 7.0549 15.5535 6.41938 14.6475 6.0441C13.7414 5.66881 12.7445 5.57062 11.7827 5.76194C10.8208 5.95326 9.93734 6.42549 9.24391 7.11893C8.55047 7.81236 8.07824 8.69585 7.88692 9.65768C7.6956 10.6195 7.79379 11.6165 8.16908 12.5225C8.54436 13.4285 9.17988 14.2029 9.99528 14.7477C10.8107 15.2925 11.7693 15.5833 12.75 15.5833C14.065 15.5833 15.3262 15.0609 16.2561 14.1311C17.1859 13.2012 17.7083 11.94 17.7083 10.625ZM22.5816 18.4167C23.4525 19.0906 24.1652 19.9473 24.6694 20.9263C25.1736 21.9053 25.4571 22.9829 25.5 24.0833V26.9167H31.1666V24.0833C31.1666 24.0833 31.1666 18.9408 22.5816 18.4167ZM21.25 5.66667C20.2749 5.66124 19.3212 5.95277 18.5158 6.5025C19.3764 7.70488 19.8391 9.1464 19.8391 10.625C19.8391 12.1036 19.3764 13.5451 18.5158 14.7475C19.3212 15.2972 20.2749 15.5888 21.25 15.5833C22.565 15.5833 23.8262 15.0609 24.7561 14.1311C25.6859 13.2012 26.2083 11.94 26.2083 10.625C26.2083 9.30997 25.6859 8.0488 24.7561 7.11893C23.8262 6.18906 22.565 5.66667 21.25 5.66667Z" fill="white"/>
</svg>
