<svg width="39" height="39" viewBox="0 0 39 39" fill="none" xmlns="http://www.w3.org/2000/svg">
<g filter="url(#filter0_d_1_690)">
<path d="M4 5.16667C4 3.79638 4.54434 2.48222 5.51328 1.51328C6.48222 0.544343 7.79638 0 9.16667 0H13.0417C13.3842 0 13.7128 0.136086 13.955 0.378321C14.1972 0.620555 14.3333 0.949095 14.3333 1.29167C14.3333 1.63424 14.1972 1.96278 13.955 2.20501C13.7128 2.44725 13.3842 2.58333 13.0417 2.58333H9.16667C8.48152 2.58333 7.82444 2.8555 7.33997 3.33997C6.8555 3.82444 6.58333 4.48152 6.58333 5.16667V9.04167C6.58333 9.38424 6.44725 9.71278 6.20501 9.95501C5.96278 10.1972 5.63424 10.3333 5.29167 10.3333C4.9491 10.3333 4.62056 10.1972 4.37832 9.95501C4.13609 9.71278 4 9.38424 4 9.04167V5.16667ZM4 25.8333C4 27.2036 4.54434 28.5178 5.51328 29.4867C6.48222 30.4557 7.79638 31 9.16667 31H13.0417C13.3842 31 13.7128 30.8639 13.955 30.6217C14.1972 30.3794 14.3333 30.0509 14.3333 29.7083C14.3333 29.3658 14.1972 29.0372 13.955 28.795C13.7128 28.5528 13.3842 28.4167 13.0417 28.4167H9.16667C8.48152 28.4167 7.82444 28.1445 7.33997 27.66C6.8555 27.1756 6.58333 26.5185 6.58333 25.8333V21.9583C6.58333 21.6158 6.44725 21.2872 6.20501 21.045C5.96278 20.8028 5.63424 20.6667 5.29167 20.6667C4.9491 20.6667 4.62056 20.8028 4.37832 21.045C4.13609 21.2872 4 21.6158 4 21.9583V25.8333ZM29.8333 0C31.2036 0 32.5178 0.544343 33.4867 1.51328C34.4557 2.48222 35 3.79638 35 5.16667V9.04167C35 9.38424 34.8639 9.71278 34.6217 9.95501C34.3794 10.1972 34.0509 10.3333 33.7083 10.3333C33.3658 10.3333 33.0372 10.1972 32.795 9.95501C32.5528 9.71278 32.4167 9.38424 32.4167 9.04167V5.16667C32.4167 4.48152 32.1445 3.82444 31.66 3.33997C31.1756 2.8555 30.5185 2.58333 29.8333 2.58333H25.9583C25.6158 2.58333 25.2872 2.44725 25.045 2.20501C24.8028 1.96278 24.6667 1.63424 24.6667 1.29167C24.6667 0.949095 24.8028 0.620555 25.045 0.378321C25.2872 0.136086 25.6158 0 25.9583 0H29.8333ZM35 25.8333C35 27.2036 34.4557 28.5178 33.4867 29.4867C32.5178 30.4557 31.2036 31 29.8333 31H25.9583C25.6158 31 25.2872 30.8639 25.045 30.6217C24.8028 30.3794 24.6667 30.0509 24.6667 29.7083C24.6667 29.3658 24.8028 29.0372 25.045 28.795C25.2872 28.5528 25.6158 28.4167 25.9583 28.4167H29.8333C30.5185 28.4167 31.1756 28.1445 31.66 27.66C32.1445 27.1756 32.4167 26.5185 32.4167 25.8333V21.9583C32.4167 21.6158 32.5528 21.2872 32.795 21.045C33.0372 20.8028 33.3658 20.6667 33.7083 20.6667C34.0509 20.6667 34.3794 20.8028 34.6217 21.045C34.8639 21.2872 35 21.6158 35 21.9583V25.8333ZM13.0417 18.0833C13.0417 16.3705 13.7221 14.7278 14.9333 13.5166C16.1444 12.3054 17.7871 11.625 19.5 11.625C21.2129 11.625 22.8556 12.3054 24.0667 13.5166C25.2779 14.7278 25.9583 16.3705 25.9583 18.0833C25.9583 19.7962 25.2779 21.4389 24.0667 22.6501C22.8556 23.8612 21.2129 24.5417 19.5 24.5417C17.7871 24.5417 16.1444 23.8612 14.9333 22.6501C13.7221 21.4389 13.0417 19.7962 13.0417 18.0833ZM7.3945 15.407C7.71241 15.5344 8.06789 15.5303 8.38277 15.3956C8.69766 15.2609 8.94617 15.0067 9.07367 14.6888L9.08658 14.663L9.15892 14.508C9.22867 14.3659 9.34492 14.1541 9.51025 13.888C9.97209 13.1664 10.5281 12.5096 11.1636 11.935C12.7213 10.5219 15.3253 9.04167 19.5 9.04167C23.6772 9.04167 26.2787 10.5219 27.8338 11.935C28.6217 12.6506 29.1565 13.3636 29.4872 13.8906C29.6451 14.139 29.7875 14.397 29.9134 14.663C29.9134 14.663 30.5437 15.8307 31.6055 15.407C31.9234 15.2795 32.1776 15.031 32.3122 14.7161C32.4469 14.4012 32.451 14.0457 32.3237 13.7278V13.7227L32.3185 13.7123L32.3056 13.6865C32.2583 13.5734 32.2066 13.4623 32.1506 13.3532C32.0045 13.0639 31.8442 12.7819 31.6701 12.5085C31.0846 11.5904 30.3792 10.7546 29.5724 10.0233C27.5729 8.20725 24.3618 6.45833 19.4974 6.45833C14.6356 6.45833 11.4245 8.20725 9.42758 10.0233C8.61984 10.7544 7.9135 11.5902 7.32733 12.5085C7.08862 12.8861 6.87628 13.2797 6.69183 13.6865L6.6815 13.7123L6.67633 13.7253C6.54897 14.0432 6.55308 14.4012 6.68776 14.7161C6.82243 15.031 7.07664 15.2795 7.3945 15.407Z" fill="white"/>
</g>
<defs>
<filter id="filter0_d_1_690" x="0" y="0" width="39" height="39" filterUnits="userSpaceOnUse" color-interpolation-filters="sRGB">
<feFlood flood-opacity="0" result="BackgroundImageFix"/>
<feColorMatrix in="SourceAlpha" type="matrix" values="0 0 0 0 0 0 0 0 0 0 0 0 0 0 0 0 0 0 127 0" result="hardAlpha"/>
<feOffset dy="4"/>
<feGaussianBlur stdDeviation="2"/>
<feComposite in2="hardAlpha" operator="out"/>
<feColorMatrix type="matrix" values="0 0 0 0 0 0 0 0 0 0 0 0 0 0 0 0 0 0 0.25 0"/>
<feBlend mode="normal" in2="BackgroundImageFix" result="effect1_dropShadow_1_690"/>
<feBlend mode="normal" in="SourceGraphic" in2="effect1_dropShadow_1_690" result="shape"/>
</filter>
</defs>
</svg>
