<svg width="259" height="40" viewBox="0 0 259 40" fill="none" xmlns="http://www.w3.org/2000/svg">
<path fill-rule="evenodd" clip-rule="evenodd" d="M0.257935 32.4881C12.1149 32.4569 12.1149 9.48194 30.345 9.48194C47.7479 9.48194 47.7479 26.9633 66.1606 26.9633C85.277 26.9633 90.4423 1 104.974 1C112.67 1 112.67 9.48194 127.087 9.48194C144.549 7.31812 142.619 18.9143 157.701 19.7718C171.906 18.9143 173.765 5.1945 187.995 5.1945C203.223 5.1945 209.768 39 227.537 39" fill="url(#paint0_linear_209_190)"/>
<path d="M0.257935 32.4881C12.0809 32.4569 12.0809 9.48194 30.2585 9.48194C47.6114 9.48194 47.6114 26.9633 65.9712 26.9633C85.0327 26.9633 90.1831 1 104.673 1C112.347 1 112.347 9.48194 126.723 9.48194C144.134 7.31812 142.21 18.9143 157.249 19.7718C171.413 18.9143 173.267 5.1945 187.455 5.1945C202.64 5.1945 209.884 39 226.884 39C232.359 39 237.157 35.0328 241.111 29.9562C247.564 21.6716 251.813 11.259 252.849 9.48194C255.347 5.1945 258.958 5.1945 258.958 5.1945" stroke="#5470DE" stroke-width="0.7"/>
<defs>
<linearGradient id="paint0_linear_209_190" x1="-32.0243" y1="-9.79489" x2="-32.0243" y2="39" gradientUnits="userSpaceOnUse">
<stop stop-color="#8DA9F1"/>
<stop offset="1" stop-color="white" stop-opacity="0.01"/>
</linearGradient>
</defs>
</svg>
