<svg width="249" height="44" viewBox="0 0 249 44" fill="none" xmlns="http://www.w3.org/2000/svg">
<path d="M1 5C1 5 3.82814 1 11.0092 1C21.5301 1 23.7091 8 32.0676 8C40.4262 8 41.4466 2.81543 51.1729 2.81543C60.8993 2.81543 59.5315 14.2861 76.3573 16.3721C86.4734 16.3721 87.8411 10.7812 96.9831 10.7812C107.543 10.7812 110.377 2.81543 125.249 2.81543C146.743 2.81543 150.325 43.3242 167.042 43.3242C182.935 43.3242 176.826 37 200.477 37C218.855 37 221.754 30 230.72 30C238.205 30 241.322 30 247.616 37.9592" stroke="#07BEAA" stroke-width="0.7"/>
<path fill-rule="evenodd" clip-rule="evenodd" d="M1.35346 43.3242L1 5C1 5 3.82814 1 11.0092 1C21.5301 1 23.7091 8 32.0676 8C40.4262 8 41.4466 2.81543 51.1729 2.81543C60.8993 2.81543 59.5315 14.2861 76.3573 16.3721C86.4734 16.3721 87.8411 10.7812 96.9831 10.7812C107.543 10.7812 110.377 2.81543 125.249 2.81543C146.743 2.81543 150.325 43.3242 167.042 43.3242" fill="url(#paint0_linear_210_194)"/>
<path fill-rule="evenodd" clip-rule="evenodd" d="M167.042 43.3242C182.935 43.3242 176.826 37 200.477 37C218.855 37 221.754 30 230.72 30C238.205 30 241.322 30 247.616 37.9592C248.663 39.8618 248.179 43.3242 248.179 43.3242" fill="url(#paint1_linear_210_194)"/>
<defs>
<linearGradient id="paint0_linear_210_194" x1="-41.7621" y1="-25.1633" x2="-42.1029" y2="42.6806" gradientUnits="userSpaceOnUse">
<stop stop-color="#47DFCF"/>
<stop offset="1" stop-color="white" stop-opacity="0.01"/>
</linearGradient>
<linearGradient id="paint1_linear_210_194" x1="146.625" y1="23.5335" x2="146.699" y2="43.5611" gradientUnits="userSpaceOnUse">
<stop stop-color="#47DFCF"/>
<stop offset="1" stop-color="white" stop-opacity="0.01"/>
</linearGradient>
</defs>
</svg>
