<svg width="250" height="39" viewBox="0 0 250 39" fill="none" xmlns="http://www.w3.org/2000/svg">
<path d="M1 36.5549C12.8406 36.5242 12.8406 29.5549 28.0782 29.5549C45.3577 29.5549 41.2081 20.5549 59.3785 20.5549C74.0345 19.5549 74.0345 1.13887 94 1.13887C114.263 -1.44511 122.598 32.8869 139.161 32.8869C155.583 32.8869 155.583 15.9201 170.52 15.9201C187.05 15.9201 192.758 28.4426 201.941 28.4426C210.32 28.4426 214.779 21.278 220.469 21.278C224.33 21.278 224.953 22.7898 232.285 22.7898C236.435 22.7898 237.513 22.0752 242.09 20.5549C243.785 19.9921 249.077 19.5549 249.077 19.5549" stroke="#0D99E6" stroke-width="0.7"/>
<path fill-rule="evenodd" clip-rule="evenodd" d="M202.231 28.4426C210.61 28.4426 215.068 21.278 220.758 21.278C224.619 21.278 225.243 22.7898 232.574 22.7898C236.724 22.7898 237.802 22.0752 242.38 20.5549C244.074 19.9921 249.367 19.5549 249.367 19.5549V31.2942H202.231" fill="url(#paint0_linear_210_195)"/>
<path fill-rule="evenodd" clip-rule="evenodd" d="M139.45 34.842C136.183 34.842 139.45 34.842 139.45 32.8869C155.872 32.8869 155.872 15.9201 170.81 15.9201C187.339 15.9201 193.047 28.4426 202.231 28.4426C202.231 34.842 202.231 34.842 202.231 34.842C202.231 34.842 167.573 34.842 139.45 34.842Z" fill="url(#paint1_linear_210_195)"/>
<path fill-rule="evenodd" clip-rule="evenodd" d="M1.30519 36.5549C13.1458 36.5242 13.1299 29.5549 28.3675 29.5549C45.647 29.5549 41.4974 20.5549 59.6678 20.5549C74.3238 19.5549 74.3238 1.13887 94.2893 1.13887C114.552 -1.44511 122.887 32.8869 139.45 32.8869V37.9831C139.45 37.9831 10.6703 38.1338 1.30519 37.9831C-0.735099 37.9503 -0.106904 36.5586 1.30519 36.5549Z" fill="url(#paint2_linear_210_195)"/>
<defs>
<linearGradient id="paint0_linear_210_195" x1="165.952" y1="-0.459853" x2="166.02" y2="31.4338" gradientUnits="userSpaceOnUse">
<stop stop-color="#93D7FD"/>
<stop offset="1" stop-color="white"/>
</linearGradient>
<linearGradient id="paint1_linear_210_195" x1="91.0128" y1="-16.4026" x2="91.1067" y2="33.5585" gradientUnits="userSpaceOnUse">
<stop stop-color="#93D7FD"/>
<stop offset="1" stop-color="white"/>
</linearGradient>
<linearGradient id="paint2_linear_210_195" x1="-109.982" y1="-64.9296" x2="-109.521" y2="38.9524" gradientUnits="userSpaceOnUse">
<stop stop-color="#93D7FD"/>
<stop offset="1" stop-color="white"/>
</linearGradient>
</defs>
</svg>
